<svg xmlns="http://www.w3.org/2000/svg" xmlns:xlink="http://www.w3.org/1999/xlink" width="500" zoomAndPan="magnify" viewBox="0 0 375 374.999991" height="500" preserveAspectRatio="xMidYMid meet" version="1.0"><defs><g/><clipPath id="5f8bb57d65"><path d="M 105.078125 70.320312 L 270.023438 70.320312 L 270.023438 177.570312 L 105.078125 177.570312 Z M 105.078125 70.320312 " clip-rule="nonzero"/></clipPath></defs><rect x="-37.5" width="450" fill="#ffffff" y="-37.499999" height="449.999989" fill-opacity="1"/><rect x="-37.5" width="450" fill="#ffffff" y="-37.499999" height="449.999989" fill-opacity="1"/><g fill="#2f1514" fill-opacity="1"><g transform="translate(84.391515, 240.788408)"><g><path d="M 2.78125 -37.484375 L 19.625 -37.484375 L 19.625 -31.84375 L 11.0625 -31.84375 L 11.0625 -22.53125 L 17.59375 -22.53125 L 17.59375 -16.796875 L 11.0625 -16.796875 L 11.0625 -5.59375 L 19.71875 -5.59375 L 19.71875 0 L 2.78125 0 Z M 2.78125 -37.484375 "/></g></g></g><g fill="#2f1514" fill-opacity="1"><g transform="translate(105.07751, 240.788408)"><g><path d="M 2.78125 -37.484375 L 8.609375 -37.484375 L 16.296875 -19.4375 L 16.296875 -37.484375 L 23.140625 -37.484375 L 23.140625 0 L 17.546875 0 L 9.859375 -19.4375 L 9.859375 0 L 2.78125 0 Z M 2.78125 -37.484375 "/></g></g></g><g fill="#2f1514" fill-opacity="1"><g transform="translate(131.039129, 240.788408)"><g><path d="M 8.046875 -37.484375 L 17.5 -37.484375 L 24.484375 0 L 16.84375 0 L 15.59375 -7.921875 L 10.09375 -7.921875 L 8.796875 0 L 0.96875 0 Z M 14.8125 -12.859375 L 12.8125 -27.484375 L 10.828125 -12.859375 Z M 14.8125 -12.859375 "/></g></g></g><g fill="#2f1514" fill-opacity="1"><g transform="translate(156.537971, 240.788408)"><g><path d="M 2.78125 -37.484375 L 12.546875 -37.484375 C 14.984375 -37.484375 17.054688 -37.226562 18.765625 -36.71875 C 20.472656 -36.207031 21.851562 -35.226562 22.90625 -33.78125 C 23.957031 -32.332031 24.484375 -30.296875 24.484375 -27.671875 C 24.484375 -25.453125 24.003906 -23.722656 23.046875 -22.484375 C 22.085938 -21.253906 20.726562 -20.46875 18.96875 -20.125 C 21.132812 -19.851562 22.785156 -18.945312 23.921875 -17.40625 C 25.066406 -15.863281 25.640625 -13.765625 25.640625 -11.109375 C 25.640625 -3.703125 21.859375 0 14.296875 0 L 2.78125 0 Z M 12.6875 -22.5 C 14.4375 -22.5 15.628906 -22.898438 16.265625 -23.703125 C 16.898438 -24.503906 17.21875 -25.75 17.21875 -27.4375 C 17.21875 -28.925781 16.816406 -30.046875 16.015625 -30.796875 C 15.210938 -31.554688 14.039062 -31.9375 12.5 -31.9375 L 11.0625 -31.9375 L 11.0625 -22.5 Z M 12.8125 -5.78125 C 14.570312 -5.78125 15.816406 -6.21875 16.546875 -7.09375 C 17.273438 -7.976562 17.640625 -9.363281 17.640625 -11.25 C 17.640625 -13.375 17.273438 -14.867188 16.546875 -15.734375 C 15.816406 -16.597656 14.5625 -17.03125 12.78125 -17.03125 L 11.0625 -17.03125 L 11.0625 -5.78125 Z M 12.8125 -5.78125 "/></g></g></g><g fill="#2f1514" fill-opacity="1"><g transform="translate(183.749079, 240.788408)"><g><path d="M 2.78125 -37.484375 L 11.0625 -37.484375 L 11.0625 -5.59375 L 19.671875 -5.59375 L 19.671875 0 L 2.78125 0 Z M 2.78125 -37.484375 "/></g></g></g><g fill="#2f1514" fill-opacity="1"><g transform="translate(204.249966, 240.788408)"><g><path d="M 2.78125 -37.484375 L 19.625 -37.484375 L 19.625 -31.84375 L 11.0625 -31.84375 L 11.0625 -22.53125 L 17.59375 -22.53125 L 17.59375 -16.796875 L 11.0625 -16.796875 L 11.0625 -5.59375 L 19.71875 -5.59375 L 19.71875 0 L 2.78125 0 Z M 2.78125 -37.484375 "/></g></g></g><g fill="#2f1514" fill-opacity="1"><g transform="translate(224.935961, 240.788408)"><g><path d="M 2.96875 -18.65625 L 14.953125 -18.65625 L 14.953125 -13.84375 L 2.96875 -13.84375 Z M 2.96875 -18.65625 "/></g></g></g><g fill="#2f1514" fill-opacity="1"><g transform="translate(242.799043, 240.788408)"><g><path d="M 2.78125 -37.484375 L 19.625 -37.484375 L 19.625 -31.84375 L 11.0625 -31.84375 L 11.0625 -22.53125 L 17.59375 -22.53125 L 17.59375 -16.796875 L 11.0625 -16.796875 L 11.0625 -5.59375 L 19.71875 -5.59375 L 19.71875 0 L 2.78125 0 Z M 2.78125 -37.484375 "/></g></g></g><g fill="#2f1514" fill-opacity="1"><g transform="translate(263.485039, 240.788408)"><g><path d="M 2.78125 -37.484375 L 12.265625 -37.484375 C 15.503906 -37.484375 18.03125 -37.082031 19.84375 -36.28125 C 21.664062 -35.476562 22.957031 -34.21875 23.71875 -32.5 C 24.476562 -30.789062 24.859375 -28.503906 24.859375 -25.640625 L 24.859375 -12.03125 C 24.859375 -9.132812 24.476562 -6.820312 23.71875 -5.09375 C 22.957031 -3.363281 21.675781 -2.082031 19.875 -1.25 C 18.070312 -0.414062 15.566406 0 12.359375 0 L 2.78125 0 Z M 12.359375 -5.734375 C 13.554688 -5.734375 14.441406 -5.910156 15.015625 -6.265625 C 15.585938 -6.617188 15.953125 -7.128906 16.109375 -7.796875 C 16.265625 -8.460938 16.34375 -9.441406 16.34375 -10.734375 L 16.34375 -27.078125 C 16.34375 -28.273438 16.253906 -29.191406 16.078125 -29.828125 C 15.910156 -30.460938 15.539062 -30.929688 14.96875 -31.234375 C 14.394531 -31.546875 13.507812 -31.703125 12.3125 -31.703125 L 11.0625 -31.703125 L 11.0625 -5.734375 Z M 12.359375 -5.734375 "/></g></g></g><g fill="#2f1514" fill-opacity="1"><g transform="translate(129.569401, 255.50977)"><g><path d="M 1.5625 -7.296875 L 3.40625 -7.296875 L 4.765625 0 L 3.28125 0 L 3.03125 -1.53125 L 1.96875 -1.53125 L 1.703125 0 L 0.1875 0 Z M 2.875 -2.5 L 2.5 -5.34375 L 2.109375 -2.5 Z M 2.875 -2.5 "/></g></g></g><g fill="#2f1514" fill-opacity="1"><g transform="translate(140.468142, 255.50977)"><g><path d="M 0.546875 -7.296875 L 1.671875 -7.296875 L 3.171875 -3.78125 L 3.171875 -7.296875 L 4.5 -7.296875 L 4.5 0 L 3.40625 0 L 1.921875 -3.78125 L 1.921875 0 L 0.546875 0 Z M 0.546875 -7.296875 "/></g></g></g><g fill="#2f1514" fill-opacity="1"><g transform="translate(151.456876, 255.50977)"><g/></g></g><g fill="#2f1514" fill-opacity="1"><g transform="translate(159.700672, 255.50977)"><g><path d="M 0.546875 -7.296875 L 2.15625 -7.296875 L 2.15625 0 L 0.546875 0 Z M 0.546875 -7.296875 "/></g></g></g><g fill="#2f1514" fill-opacity="1"><g transform="translate(168.34946, 255.50977)"><g><path d="M 0.546875 -7.296875 L 1.671875 -7.296875 L 3.171875 -3.78125 L 3.171875 -7.296875 L 4.5 -7.296875 L 4.5 0 L 3.40625 0 L 1.921875 -3.78125 L 1.921875 0 L 0.546875 0 Z M 0.546875 -7.296875 "/></g></g></g><g fill="#2f1514" fill-opacity="1"><g transform="translate(179.338194, 255.50977)"><g><path d="M 2.625 0.109375 C 1.832031 0.109375 1.269531 -0.0976562 0.9375 -0.515625 C 0.601562 -0.929688 0.4375 -1.535156 0.4375 -2.328125 L 0.4375 -4.953125 C 0.4375 -5.753906 0.601562 -6.359375 0.9375 -6.765625 C 1.269531 -7.179688 1.832031 -7.390625 2.625 -7.390625 C 3.382812 -7.390625 3.921875 -7.207031 4.234375 -6.84375 C 4.554688 -6.476562 4.71875 -5.957031 4.71875 -5.28125 L 4.71875 -4.65625 L 3.15625 -4.65625 L 3.15625 -5.375 C 3.15625 -5.664062 3.125 -5.882812 3.0625 -6.03125 C 3 -6.175781 2.851562 -6.25 2.625 -6.25 C 2.394531 -6.25 2.242188 -6.171875 2.171875 -6.015625 C 2.097656 -5.859375 2.0625 -5.640625 2.0625 -5.359375 L 2.0625 -1.921875 C 2.0625 -1.640625 2.097656 -1.421875 2.171875 -1.265625 C 2.253906 -1.109375 2.40625 -1.03125 2.625 -1.03125 C 2.851562 -1.03125 3 -1.109375 3.0625 -1.265625 C 3.125 -1.421875 3.15625 -1.640625 3.15625 -1.921875 L 3.15625 -2.6875 L 4.71875 -2.6875 L 4.71875 -2.0625 C 4.71875 -1.375 4.554688 -0.835938 4.234375 -0.453125 C 3.921875 -0.078125 3.382812 0.109375 2.625 0.109375 Z M 2.625 0.109375 "/></g></g></g><g fill="#2f1514" fill-opacity="1"><g transform="translate(190.344928, 255.50977)"><g><path d="M 0.546875 -7.296875 L 2.15625 -7.296875 L 2.15625 -1.09375 L 3.828125 -1.09375 L 3.828125 0 L 0.546875 0 Z M 0.546875 -7.296875 "/></g></g></g><g fill="#2f1514" fill-opacity="1"><g transform="translate(200.271689, 255.50977)"><g><path d="M 2.640625 0.109375 C 2.097656 0.109375 1.664062 0.0195312 1.34375 -0.15625 C 1.03125 -0.332031 0.804688 -0.59375 0.671875 -0.9375 C 0.546875 -1.28125 0.484375 -1.722656 0.484375 -2.265625 L 0.484375 -7.296875 L 2.078125 -7.296875 L 2.078125 -2.015625 C 2.078125 -1.722656 2.113281 -1.488281 2.1875 -1.3125 C 2.257812 -1.132812 2.410156 -1.046875 2.640625 -1.046875 C 2.867188 -1.046875 3.019531 -1.132812 3.09375 -1.3125 C 3.164062 -1.488281 3.203125 -1.722656 3.203125 -2.015625 L 3.203125 -7.296875 L 4.8125 -7.296875 L 4.8125 -2.265625 C 4.8125 -1.722656 4.742188 -1.28125 4.609375 -0.9375 C 4.472656 -0.59375 4.25 -0.332031 3.9375 -0.15625 C 3.625 0.0195312 3.191406 0.109375 2.640625 0.109375 Z M 2.640625 0.109375 "/></g></g></g><g fill="#2f1514" fill-opacity="1"><g transform="translate(211.50342, 255.50977)"><g><path d="M 2.46875 0.109375 C 1.78125 0.109375 1.265625 -0.0703125 0.921875 -0.4375 C 0.578125 -0.8125 0.394531 -1.398438 0.375 -2.203125 L 1.75 -2.40625 C 1.757812 -1.945312 1.816406 -1.613281 1.921875 -1.40625 C 2.023438 -1.207031 2.179688 -1.109375 2.390625 -1.109375 C 2.660156 -1.109375 2.796875 -1.285156 2.796875 -1.640625 C 2.796875 -1.921875 2.726562 -2.164062 2.59375 -2.375 C 2.46875 -2.582031 2.269531 -2.800781 2 -3.03125 L 1.375 -3.578125 C 1.0625 -3.847656 0.816406 -4.128906 0.640625 -4.421875 C 0.472656 -4.722656 0.390625 -5.078125 0.390625 -5.484375 C 0.390625 -6.097656 0.566406 -6.566406 0.921875 -6.890625 C 1.285156 -7.222656 1.789062 -7.390625 2.4375 -7.390625 C 3.125 -7.390625 3.59375 -7.1875 3.84375 -6.78125 C 4.09375 -6.382812 4.222656 -5.894531 4.234375 -5.3125 L 2.859375 -5.140625 C 2.835938 -5.523438 2.796875 -5.796875 2.734375 -5.953125 C 2.679688 -6.117188 2.5625 -6.203125 2.375 -6.203125 C 2.238281 -6.203125 2.128906 -6.144531 2.046875 -6.03125 C 1.972656 -5.914062 1.9375 -5.785156 1.9375 -5.640625 C 1.9375 -5.398438 1.992188 -5.191406 2.109375 -5.015625 C 2.222656 -4.847656 2.398438 -4.660156 2.640625 -4.453125 L 3.25 -3.921875 C 3.601562 -3.609375 3.878906 -3.28125 4.078125 -2.9375 C 4.285156 -2.601562 4.390625 -2.203125 4.390625 -1.734375 C 4.390625 -1.390625 4.304688 -1.078125 4.140625 -0.796875 C 3.984375 -0.515625 3.757812 -0.289062 3.46875 -0.125 C 3.1875 0.03125 2.851562 0.109375 2.46875 0.109375 Z M 2.46875 0.109375 "/></g></g></g><g fill="#2f1514" fill-opacity="1"><g transform="translate(222.069168, 255.50977)"><g><path d="M 0.546875 -7.296875 L 2.15625 -7.296875 L 2.15625 0 L 0.546875 0 Z M 0.546875 -7.296875 "/></g></g></g><g fill="#2f1514" fill-opacity="1"><g transform="translate(230.717962, 255.50977)"><g><path d="M 0.203125 -7.296875 L 1.578125 -7.296875 L 2.359375 -2.34375 L 3.09375 -7.296875 L 4.546875 -7.296875 L 3.21875 0 L 1.515625 0 Z M 0.203125 -7.296875 "/></g></g></g><g fill="#2f1514" fill-opacity="1"><g transform="translate(241.391705, 255.50977)"><g><path d="M 0.546875 -7.296875 L 3.8125 -7.296875 L 3.8125 -6.1875 L 2.15625 -6.1875 L 2.15625 -4.390625 L 3.421875 -4.390625 L 3.421875 -3.265625 L 2.15625 -3.265625 L 2.15625 -1.09375 L 3.828125 -1.09375 L 3.828125 0 L 0.546875 0 Z M 0.546875 -7.296875 "/></g></g></g><g fill="#2f1514" fill-opacity="1"><g transform="translate(101.105323, 267.509447)"><g><path d="M 0.546875 -7.296875 L 2.15625 -7.296875 L 2.15625 -1.09375 L 3.828125 -1.09375 L 3.828125 0 L 0.546875 0 Z M 0.546875 -7.296875 "/></g></g></g><g fill="#2f1514" fill-opacity="1"><g transform="translate(111.032086, 267.509447)"><g><path d="M 0.546875 -7.296875 L 3.8125 -7.296875 L 3.8125 -6.1875 L 2.15625 -6.1875 L 2.15625 -4.390625 L 3.421875 -4.390625 L 3.421875 -3.265625 L 2.15625 -3.265625 L 2.15625 -1.09375 L 3.828125 -1.09375 L 3.828125 0 L 0.546875 0 Z M 0.546875 -7.296875 "/></g></g></g><g fill="#2f1514" fill-opacity="1"><g transform="translate(120.994851, 267.509447)"><g><path d="M 1.5625 -7.296875 L 3.40625 -7.296875 L 4.765625 0 L 3.28125 0 L 3.03125 -1.53125 L 1.96875 -1.53125 L 1.703125 0 L 0.1875 0 Z M 2.875 -2.5 L 2.5 -5.34375 L 2.109375 -2.5 Z M 2.875 -2.5 "/></g></g></g><g fill="#2f1514" fill-opacity="1"><g transform="translate(131.893593, 267.509447)"><g><path d="M 0.546875 -7.296875 L 2.546875 -7.296875 C 3.347656 -7.296875 3.953125 -7.148438 4.359375 -6.859375 C 4.765625 -6.578125 4.96875 -6.078125 4.96875 -5.359375 C 4.96875 -4.878906 4.90625 -4.492188 4.78125 -4.203125 C 4.65625 -3.910156 4.421875 -3.6875 4.078125 -3.53125 L 5.078125 0 L 3.40625 0 L 2.609375 -3.265625 L 2.15625 -3.265625 L 2.15625 0 L 0.546875 0 Z M 2.59375 -4.1875 C 2.925781 -4.1875 3.15625 -4.269531 3.28125 -4.4375 C 3.40625 -4.613281 3.46875 -4.875 3.46875 -5.21875 C 3.46875 -5.550781 3.40625 -5.796875 3.28125 -5.953125 C 3.164062 -6.117188 2.960938 -6.203125 2.671875 -6.203125 L 2.15625 -6.203125 L 2.15625 -4.1875 Z M 2.59375 -4.1875 "/></g></g></g><g fill="#2f1514" fill-opacity="1"><g transform="translate(143.23333, 267.509447)"><g><path d="M 0.546875 -7.296875 L 1.671875 -7.296875 L 3.171875 -3.78125 L 3.171875 -7.296875 L 4.5 -7.296875 L 4.5 0 L 3.40625 0 L 1.921875 -3.78125 L 1.921875 0 L 0.546875 0 Z M 0.546875 -7.296875 "/></g></g></g><g fill="#2f1514" fill-opacity="1"><g transform="translate(154.222063, 267.509447)"><g><path d="M 0.546875 -7.296875 L 2.15625 -7.296875 L 2.15625 0 L 0.546875 0 Z M 0.546875 -7.296875 "/></g></g></g><g fill="#2f1514" fill-opacity="1"><g transform="translate(162.870852, 267.509447)"><g><path d="M 0.546875 -7.296875 L 1.671875 -7.296875 L 3.171875 -3.78125 L 3.171875 -7.296875 L 4.5 -7.296875 L 4.5 0 L 3.40625 0 L 1.921875 -3.78125 L 1.921875 0 L 0.546875 0 Z M 0.546875 -7.296875 "/></g></g></g><g fill="#2f1514" fill-opacity="1"><g transform="translate(173.859585, 267.509447)"><g><path d="M 2.4375 0.109375 C 1.71875 0.109375 1.203125 -0.109375 0.890625 -0.546875 C 0.585938 -0.984375 0.4375 -1.601562 0.4375 -2.40625 L 0.4375 -4.859375 C 0.4375 -5.679688 0.601562 -6.304688 0.9375 -6.734375 C 1.269531 -7.171875 1.832031 -7.390625 2.625 -7.390625 C 3.382812 -7.390625 3.929688 -7.203125 4.265625 -6.828125 C 4.597656 -6.453125 4.765625 -5.925781 4.765625 -5.25 L 4.765625 -4.78125 L 3.1875 -4.78125 L 3.1875 -5.375 C 3.1875 -5.664062 3.148438 -5.882812 3.078125 -6.03125 C 3.015625 -6.175781 2.867188 -6.25 2.640625 -6.25 C 2.410156 -6.25 2.257812 -6.164062 2.1875 -6 C 2.125 -5.84375 2.09375 -5.625 2.09375 -5.34375 L 2.09375 -1.96875 C 2.09375 -1.675781 2.132812 -1.445312 2.21875 -1.28125 C 2.300781 -1.113281 2.457031 -1.03125 2.6875 -1.03125 C 3.113281 -1.03125 3.328125 -1.347656 3.328125 -1.984375 L 3.328125 -2.828125 L 2.65625 -2.828125 L 2.65625 -3.78125 L 4.765625 -3.78125 L 4.765625 0 L 3.703125 0 L 3.625 -0.609375 C 3.394531 -0.128906 3 0.109375 2.4375 0.109375 Z M 2.4375 0.109375 "/></g></g></g><g fill="#2f1514" fill-opacity="1"><g transform="translate(185.037324, 267.509447)"><g/></g></g><g fill="#2f1514" fill-opacity="1"><g transform="translate(193.281117, 267.509447)"><g><path d="M 0.546875 -7.296875 L 2.984375 -7.296875 C 3.628906 -7.296875 4.109375 -7.113281 4.421875 -6.75 C 4.742188 -6.382812 4.90625 -5.859375 4.90625 -5.171875 C 4.90625 -4.390625 4.71875 -3.847656 4.34375 -3.546875 C 3.976562 -3.242188 3.460938 -3.09375 2.796875 -3.09375 L 2.15625 -3.09375 L 2.15625 0 L 0.546875 0 Z M 2.6875 -4.21875 C 2.96875 -4.21875 3.15625 -4.289062 3.25 -4.4375 C 3.34375 -4.59375 3.390625 -4.847656 3.390625 -5.203125 C 3.390625 -5.523438 3.34375 -5.765625 3.25 -5.921875 C 3.164062 -6.078125 2.976562 -6.15625 2.6875 -6.15625 L 2.15625 -6.15625 L 2.15625 -4.21875 Z M 2.6875 -4.21875 "/></g></g></g><g fill="#2f1514" fill-opacity="1"><g transform="translate(204.359861, 267.509447)"><g><path d="M 0.546875 -7.296875 L 2.15625 -7.296875 L 2.15625 -1.09375 L 3.828125 -1.09375 L 3.828125 0 L 0.546875 0 Z M 0.546875 -7.296875 "/></g></g></g><g fill="#2f1514" fill-opacity="1"><g transform="translate(214.286622, 267.509447)"><g><path d="M 1.5625 -7.296875 L 3.40625 -7.296875 L 4.765625 0 L 3.28125 0 L 3.03125 -1.53125 L 1.96875 -1.53125 L 1.703125 0 L 0.1875 0 Z M 2.875 -2.5 L 2.5 -5.34375 L 2.109375 -2.5 Z M 2.875 -2.5 "/></g></g></g><g fill="#2f1514" fill-opacity="1"><g transform="translate(225.185362, 267.509447)"><g><path d="M 1.203125 -6.09375 L 0.09375 -6.09375 L 0.09375 -7.296875 L 3.90625 -7.296875 L 3.90625 -6.09375 L 2.8125 -6.09375 L 2.8125 0 L 1.203125 0 Z M 1.203125 -6.09375 "/></g></g></g><g fill="#2f1514" fill-opacity="1"><g transform="translate(235.130124, 267.509447)"><g><path d="M 0.546875 -7.296875 L 3.6875 -7.296875 L 3.6875 -6.203125 L 2.15625 -6.203125 L 2.15625 -4.359375 L 3.484375 -4.359375 L 3.484375 -3.234375 L 2.15625 -3.234375 L 2.15625 0 L 0.546875 0 Z M 0.546875 -7.296875 "/></g></g></g><g fill="#2f1514" fill-opacity="1"><g transform="translate(244.975887, 267.509447)"><g><path d="M 2.625 0.109375 C 1.84375 0.109375 1.28125 -0.09375 0.9375 -0.5 C 0.601562 -0.90625 0.4375 -1.503906 0.4375 -2.296875 L 0.4375 -5 C 0.4375 -5.789062 0.601562 -6.382812 0.9375 -6.78125 C 1.28125 -7.1875 1.84375 -7.390625 2.625 -7.390625 C 3.414062 -7.390625 3.976562 -7.1875 4.3125 -6.78125 C 4.65625 -6.382812 4.828125 -5.789062 4.828125 -5 L 4.828125 -2.296875 C 4.828125 -1.503906 4.65625 -0.90625 4.3125 -0.5 C 3.976562 -0.09375 3.414062 0.109375 2.625 0.109375 Z M 2.625 -1.03125 C 2.851562 -1.03125 3.003906 -1.109375 3.078125 -1.265625 C 3.148438 -1.421875 3.1875 -1.628906 3.1875 -1.890625 L 3.1875 -5.40625 C 3.1875 -5.675781 3.148438 -5.882812 3.078125 -6.03125 C 3.003906 -6.175781 2.851562 -6.25 2.625 -6.25 C 2.40625 -6.25 2.257812 -6.171875 2.1875 -6.015625 C 2.125 -5.867188 2.09375 -5.664062 2.09375 -5.40625 L 2.09375 -1.890625 C 2.09375 -1.628906 2.125 -1.421875 2.1875 -1.265625 C 2.25 -1.109375 2.394531 -1.03125 2.625 -1.03125 Z M 2.625 -1.03125 "/></g></g></g><g fill="#2f1514" fill-opacity="1"><g transform="translate(256.189616, 267.509447)"><g><path d="M 0.546875 -7.296875 L 2.546875 -7.296875 C 3.347656 -7.296875 3.953125 -7.148438 4.359375 -6.859375 C 4.765625 -6.578125 4.96875 -6.078125 4.96875 -5.359375 C 4.96875 -4.878906 4.90625 -4.492188 4.78125 -4.203125 C 4.65625 -3.910156 4.421875 -3.6875 4.078125 -3.53125 L 5.078125 0 L 3.40625 0 L 2.609375 -3.265625 L 2.15625 -3.265625 L 2.15625 0 L 0.546875 0 Z M 2.59375 -4.1875 C 2.925781 -4.1875 3.15625 -4.269531 3.28125 -4.4375 C 3.40625 -4.613281 3.46875 -4.875 3.46875 -5.21875 C 3.46875 -5.550781 3.40625 -5.796875 3.28125 -5.953125 C 3.164062 -6.117188 2.960938 -6.203125 2.671875 -6.203125 L 2.15625 -6.203125 L 2.15625 -4.1875 Z M 2.59375 -4.1875 "/></g></g></g><g fill="#2f1514" fill-opacity="1"><g transform="translate(267.529353, 267.509447)"><g><path d="M 0.640625 -7.296875 L 2.359375 -7.296875 L 3.171875 -3.046875 L 4.03125 -7.296875 L 5.703125 -7.296875 L 5.828125 0 L 4.6875 0 L 4.546875 -4.84375 L 3.703125 0 L 2.6875 0 L 1.78125 -4.890625 L 1.671875 0 L 0.515625 0 Z M 0.640625 -7.296875 "/></g></g></g><g clip-path="url(#5f8bb57d65)"><path fill="#000000" d="M 187.527344 112.039062 L 213.203125 102.207031 L 187.527344 92.25 L 161.851562 102.207031 Z M 217.304688 145.039062 L 217.304688 133.320312 L 136.1875 102.265625 L 187.527344 82.347656 L 238.863281 102.265625 L 198.671875 117.652344 L 214.34375 123.652344 L 270.027344 102.332031 L 187.527344 70.328125 L 105.023438 102.332031 L 201.632812 139.320312 L 187.527344 144.71875 L 137.246094 125.46875 L 137.246094 158.304688 L 187.527344 177.554688 L 237.808594 158.304688 L 237.808594 125.46875 L 224.839844 130.433594 L 224.839844 143.710938 L 221.769531 142.378906 Z M 217.304688 145.039062 " fill-opacity="1" fill-rule="evenodd"/></g></svg>